<svg class="svg svg--three" xmlns="http://www.w3.org/2000/svg" viewBox="0 0 54 54">
  <g fill="none" fill-rule="evenodd">
    <g fill="#413C52">
      <g>
        <path d="M45.5 50c-1.104 0-2 .896-2 2s.896 2 2 2 2-.896 2-2-.896-2-2-2M33 50c-1.104 0-2 .896-2 2s.896 2 2 2 2-.896 2-2-.896-2-2-2m-12.5 0c-1.104 0-2 .896-2 2s.896 2 2 2 2-.896 2-2-.896-2-2-2M8 50c-1.104 0-2 .896-2 2s.896 2 2 2 2-.896 2-2-.896-2-2-2m44-10c-1.104 0-2 .896-2 2s.896 2 2 2 2-.896 2-2-.896-2-2-2m-12.5 0c-1.104 0-2 .896-2 2s.896 2 2 2 2-.896 2-2-.896-2-2-2M27 40c-1.104 0-2 .896-2 2s.896 2 2 2 2-.896 2-2-.896-2-2-2m-12.5 0c-1.104 0-2 .896-2 2s.896 2 2 2 2-.896 2-2-.896-2-2-2M2 40c-1.104 0-2 .896-2 2s.896 2 2 2 2-.896 2-2-.896-2-2-2m43.5-10c-1.104 0-2 .896-2 2s.896 2 2 2 2-.896 2-2-.896-2-2-2M33 30c-1.104 0-2 .896-2 2s.896 2 2 2 2-.896 2-2-.896-2-2-2m-12.5 0c-1.104 0-2 .896-2 2s.896 2 2 2 2-.896 2-2-.896-2-2-2M8 30c-1.104 0-2 .896-2 2s.896 2 2 2 2-.896 2-2-.896-2-2-2m44-10c-1.104 0-2 .896-2 2s.896 2 2 2 2-.896 2-2-.896-2-2-2m-12.5 0c-1.104 0-2 .896-2 2s.896 2 2 2 2-.896 2-2-.896-2-2-2M27 20c-1.104 0-2 .896-2 2s.896 2 2 2 2-.896 2-2-.896-2-2-2m-12.5 0c-1.104 0-2 .896-2 2s.896 2 2 2 2-.896 2-2-.896-2-2-2M2 20c-1.104 0-2 .896-2 2s.896 2 2 2 2-.896 2-2-.896-2-2-2m43.5-10c-1.104 0-2 .896-2 2s.896 2 2 2 2-.896 2-2-.896-2-2-2M33 10c-1.104 0-2 .896-2 2s.896 2 2 2 2-.896 2-2-.896-2-2-2m-12.5 0c-1.104 0-2 .896-2 2s.896 2 2 2 2-.896 2-2-.896-2-2-2M8 10c-1.104 0-2 .896-2 2s.896 2 2 2 2-.896 2-2-.896-2-2-2M52 0c-1.104 0-2 .896-2 2s.896 2 2 2 2-.896 2-2-.896-2-2-2M39.5 0c-1.104 0-2 .896-2 2s.896 2 2 2 2-.896 2-2-.896-2-2-2M27 0c-1.104 0-2 .896-2 2s.896 2 2 2 2-.896 2-2-.896-2-2-2M14.5 0c-1.104 0-2 .896-2 2s.896 2 2 2 2-.896 2-2-.896-2-2-2M4 2c0 1.104-.896 2-2 2s-2-.896-2-2 .896-2 2-2 2 .896 2 2"/>
      </g>
    </g>
  </g>
</svg>
