<svg class="svg svg--four" xmlns="http://www.w3.org/2000/svg" viewBox="0 0 56 54">
  <g fill="none" fill-rule="evenodd">
    <g fill="#413C52">
      <g>
        <path d="M1.743248 11.669l8.261-9.174 8.261 9.174c.38.423 1.108.421 1.486 0l8.255-9.174 8.258 9.174c.379.423 1.108.421 1.486 0l8.255-9.174 8.251 9.174c.369.41 1.001.444 1.413.075.41-.37.444-1.002.074-1.413l-8.995-10c-.19-.21-.46-.331-.743-.331-.284 0-.554.12-.743.331l-8.255 9.174-8.258-9.174c-.379-.422-1.107-.42-1.486 0l-8.255 9.174-8.261-9.174c-.379-.422-1.108-.422-1.486 0l-9.004 10c-.37.41-.337 1.043.074 1.412.191.172.43.257.668.257.274 0 .547-.112.744-.331m0 14l8.261-9.174 8.261 9.174c.38.422 1.108.421 1.486 0l8.255-9.174 8.258 9.174c.379.422 1.108.421 1.486 0l8.255-9.174 8.251 9.174c.369.411 1.001.444 1.413.075.41-.37.444-1.002.074-1.413l-8.995-10c-.19-.21-.46-.331-.743-.331-.284 0-.554.12-.743.331l-8.255 9.174-8.258-9.174c-.379-.422-1.107-.42-1.486 0l-8.255 9.174-8.261-9.174c-.379-.422-1.108-.422-1.486 0l-9.004 10c-.37.41-.337 1.043.074 1.412.191.172.43.257.668.257.274 0 .547-.112.744-.331m0 14l8.261-9.174 8.261 9.174c.38.423 1.108.421 1.486 0l8.255-9.174 8.258 9.174c.379.423 1.108.421 1.486 0l8.255-9.174 8.251 9.174c.369.41 1.001.444 1.413.075.41-.37.444-1.002.074-1.413l-8.995-10c-.19-.21-.46-.331-.743-.331-.284 0-.554.12-.743.331l-8.255 9.174-8.258-9.174c-.379-.421-1.107-.42-1.486 0l-8.255 9.174-8.261-9.174c-.379-.422-1.108-.422-1.486 0l-9.004 10c-.37.41-.337 1.043.074 1.412.191.172.43.257.668.257.274 0 .547-.112.744-.331M.999248 54c-.238 0-.477-.085-.668-.257-.411-.369-.444-1.002-.074-1.412l9.004-10c.378-.422 1.107-.422 1.486 0l8.261 9.174 8.255-9.174c.379-.42 1.107-.422 1.486 0l8.258 9.174 8.255-9.174c.189-.211.459-.331.743-.331.283 0 .553.121.743.331l8.995 10c.37.411.336 1.043-.074 1.413-.412.369-1.044.334-1.413-.075l-8.251-9.174-8.255 9.174c-.378.421-1.107.423-1.486 0l-8.258-9.174-8.255 9.174c-.378.421-1.106.423-1.486 0l-8.261-9.174-8.261 9.174c-.197.219-.47.331-.744.331"/>
      </g>
    </g>
  </g>
</svg>
