<svg class="svg svg--two" xmlns="http://www.w3.org/2000/svg" viewBox="0 0 56 56">
	<g fill="none" fill-rule="evenodd">
		<g fill="#544D6C">
			<g>
				<g>
					<path class="svg__even" d="M35,47 L29,47 L29,41 C29,40.448 28.552,40 28,40 C27.448,40 27,40.448 27,41 L27,47 L21,47 C20.448,47 20,47.448 20,48 C20,48.552 20.448,49 21,49 L27,49 L27,55 C27,55.552 27.448,56 28,56 C28.552,56 29,55.552 29,55 L29,49 L35,49 C35.552,49 36,48.552 36,48 C36,47.448 35.552,47 35,47"></path>
					<path class="svg__odd" d="M55,47 L49,47 L49,41 C49,40.448 48.552,40 48,40 C47.448,40 47,40.448 47,41 L47,47 L41,47 C40.448,47 40,47.448 40,48 C40,48.552 40.448,49 41,49 L47,49 L47,55 C47,55.552 47.448,56 48,56 C48.552,56 49,55.552 49,55 L49,49 L55,49 C55.552,49 56,48.552 56,48 C56,47.448 55.552,47 55,47"></path>
					<path class="svg__odd" d="M15,47 L9,47 L9,41 C9,40.448 8.552,40 8,40 C7.448,40 7,40.448 7,41 L7,47 L1,47 C0.448,47 0,47.448 0,48 C0,48.552 0.448,49 1,49 L7,49 L7,55 C7,55.552 7.448,56 8,56 C8.552,56 9,55.552 9,55 L9,49 L15,49 C15.552,49 16,48.552 16,48 C16,47.448 15.552,47 15,47"></path>
					<path class="svg__even" d="M55,27 L49,27 L49,21 C49,20.448 48.552,20 48,20 C47.448,20 47,20.448 47,21 L47,27 L41,27 C40.448,27 40,27.448 40,28 C40,28.552 40.448,29 41,29 L47,29 L47,35 C47,35.552 47.448,36 48,36 C48.552,36 49,35.552 49,35 L49,29 L55,29 C55.552,29 56,28.552 56,28 C56,27.448 55.552,27 55,27"></path>
					<path class="svg__odd" d="M35,27 L29,27 L29,21 C29,20.448 28.552,20 28,20 C27.448,20 27,20.448 27,21 L27,27 L21,27 C20.448,27 20,27.448 20,28 C20,28.552 20.448,29 21,29 L27,29 L27,35 C27,35.552 27.448,36 28,36 C28.552,36 29,35.552 29,35 L29,29 L35,29 C35.552,29 36,28.552 36,28 C36,27.448 35.552,27 35,27"></path>
					<path class="svg__even" d="M15,27 L9,27 L9,21 C9,20.448 8.552,20 8,20 C7.448,20 7,20.448 7,21 L7,27 L1,27 C0.448,27 0,27.448 0,28 C0,28.552 0.448,29 1,29 L7,29 L7,35 C7,35.552 7.448,36 8,36 C8.552,36 9,35.552 9,35 L9,29 L15,29 C15.552,29 16,28.552 16,28 C16,27.448 15.552,27 15,27"></path>
					<path class="svg__odd" d="M41,9 L47,9 L47,15 C47,15.552 47.448,16 48,16 C48.552,16 49,15.552 49,15 L49,9 L55,9 C55.552,9 56,8.552 56,8 C56,7.448 55.552,7 55,7 L49,7 L49,1 C49,0.448 48.552,0 48,0 C47.448,0 47,0.448 47,1 L47,7 L41,7 C40.448,7 40,7.448 40,8 C40,8.552 40.448,9 41,9"></path>
					<path class="svg__even"  d="M35,7 L29,7 L29,1 C29,0.448 28.552,0 28,0 C27.448,0 27,0.448 27,1 L27,7 L21,7 C20.448,7 20,7.448 20,8 C20,8.552 20.448,9 21,9 L27,9 L27,15 C27,15.552 27.448,16 28,16 C28.552,16 29,15.552 29,15 L29,9 L35,9 C35.552,9 36,8.552 36,8 C36,7.448 35.552,7 35,7"></path>
					<path class="svg__odd"  d="M16,8 C16,8.552 15.552,9 15,9 L9,9 L9,15 C9,15.552 8.552,16 8,16 C7.448,16 7,15.552 7,15 L7,9 L1,9 C0.448,9 0,8.552 0,8 C0,7.448 0.448,7 1,7 L7,7 L7,1 C7,0.448 7.448,0 8,0 C8.552,0 9,0.448 9,1 L9,7 L15,7 C15.552,7 16,7.448 16,8"></path>
				</g>
			</g>
		</g>
	</g>
</svg>
