<svg class="svg svg--one" xmlns="http://www.w3.org/2000/svg" viewBox="0 0 56 56">
  <g fill="none" fill-rule="evenodd">
    <g fill="#413C52">
      <g>
        <path d="M56 55V41c0-.552-.448-1-1-1s-1 .448-1 1v14c0 .552.448 1 1 1s1-.448 1-1m0-20V21c0-.552-.448-1-1-1s-1 .448-1 1v14c0 .552.448 1 1 1s1-.448 1-1m0-20V1c0-.552-.448-1-1-1s-1 .448-1 1v14c0 .552.448 1 1 1s1-.448 1-1M50 5V1c0-.552-.448-1-1-1s-1 .448-1 1v4c0 .552.448 1 1 1s1-.448 1-1M38 5V1c0-.552-.448-1-1-1s-1 .448-1 1v4c0 .552.448 1 1 1s1-.448 1-1M26 5V1c0-.552-.448-1-1-1s-1 .448-1 1v4c0 .552.448 1 1 1s1-.448 1-1M14 5V1c0-.552-.448-1-1-1s-1 .448-1 1v4c0 .552.448 1 1 1s1-.448 1-1M2 5V1c0-.552-.448-1-1-1S0 .448 0 1v4c0 .552.448 1 1 1s1-.448 1-1m48 50v-4c0-.552-.448-1-1-1s-1 .448-1 1v4c0 .552.448 1 1 1s1-.448 1-1m0-10V31c0-.552-.448-1-1-1s-1 .448-1 1v14c0 .552.448 1 1 1s1-.448 1-1m0-20V11c0-.552-.448-1-1-1s-1 .448-1 1v14c0 .552.448 1 1 1s1-.448 1-1m-6 30V41c0-.552-.448-1-1-1s-1 .448-1 1v14c0 .552.448 1 1 1s1-.448 1-1m0-20V21c0-.552-.448-1-1-1s-1 .448-1 1v14c0 .552.448 1 1 1s1-.448 1-1m0-20V1c0-.552-.448-1-1-1s-1 .448-1 1v14c0 .552.448 1 1 1s1-.448 1-1m-6 40v-4c0-.552-.448-1-1-1s-1 .448-1 1v4c0 .552.448 1 1 1s1-.448 1-1m0-10V31c0-.552-.448-1-1-1s-1 .448-1 1v14c0 .552.448 1 1 1s1-.448 1-1m0-20V11c0-.552-.448-1-1-1s-1 .448-1 1v14c0 .552.448 1 1 1s1-.448 1-1m-6 30V41c0-.552-.448-1-1-1s-1 .448-1 1v14c0 .552.448 1 1 1s1-.448 1-1m0-20V21c0-.552-.448-1-1-1s-1 .448-1 1v14c0 .552.448 1 1 1s1-.448 1-1m0-20V1c0-.552-.448-1-1-1s-1 .448-1 1v14c0 .552.448 1 1 1s1-.448 1-1m-6 40v-4c0-.552-.448-1-1-1s-1 .448-1 1v4c0 .552.448 1 1 1s1-.448 1-1m0-10V31c0-.552-.448-1-1-1s-1 .448-1 1v14c0 .552.448 1 1 1s1-.448 1-1m0-20V11c0-.552-.448-1-1-1s-1 .448-1 1v14c0 .552.448 1 1 1s1-.448 1-1m-6 30V41c0-.552-.448-1-1-1s-1 .448-1 1v14c0 .552.448 1 1 1s1-.448 1-1m0-20V21c0-.552-.448-1-1-1s-1 .448-1 1v14c0 .552.448 1 1 1s1-.448 1-1m0-20V1c0-.552-.448-1-1-1s-1 .448-1 1v14c0 .552.448 1 1 1s1-.448 1-1m-6 40v-4c0-.552-.448-1-1-1s-1 .448-1 1v4c0 .552.448 1 1 1s1-.448 1-1m0-10V31c0-.552-.448-1-1-1s-1 .448-1 1v14c0 .552.448 1 1 1s1-.448 1-1m0-20V11c0-.552-.448-1-1-1s-1 .448-1 1v14c0 .552.448 1 1 1s1-.448 1-1M8 55V41c0-.552-.448-1-1-1s-1 .448-1 1v14c0 .552.448 1 1 1s1-.448 1-1m0-20V21c0-.552-.448-1-1-1s-1 .448-1 1v14c0 .552.448 1 1 1s1-.448 1-1m0-20V1c0-.552-.448-1-1-1S6 .448 6 1v14c0 .552.448 1 1 1s1-.448 1-1M2 55v-4c0-.552-.448-1-1-1s-1 .448-1 1v4c0 .552.448 1 1 1s1-.448 1-1m0-10V31c0-.552-.448-1-1-1s-1 .448-1 1v14c0 .552.448 1 1 1s1-.448 1-1M1 26c-.552 0-1-.448-1-1V11c0-.552.448-1 1-1s1 .448 1 1v14c0 .552-.448 1-1 1"/>
      </g>
    </g>
  </g>
</svg>
