<svg class="svg svg--two" xmlns="http://www.w3.org/2000/svg" viewBox="0 0 56 56"><g fill="#544D6C" fill-rule="evenodd"><path class="svg__odd" d="M35 47h-6v-6a1 1 0 0 0-2 0v6h-6a1 1 0 0 0 0 2h6v6a1 1 0 0 0 2 0v-6h6a1 1 0 0 0 0-2"/><path d="M55 47h-6v-6a1 1 0 0 0-2 0v6h-6a1 1 0 0 0 0 2h6v6a1 1 0 0 0 2 0v-6h6a1 1 0 0 0 0-2"/><path class="svg__odd" d="M15 47H9v-6a1 1 0 0 0-2 0v6H1a1 1 0 0 0 0 2h6v6a1 1 0 0 0 2 0v-6h6a1 1 0 0 0 0-2"/><path d="M55 27h-6v-6a1 1 0 0 0-2 0v6h-6a1 1 0 0 0 0 2h6v6a1 1 0 0 0 2 0v-6h6a1 1 0 0 0 0-2"/><path class="svg__odd" d="M35 27h-6v-6a1 1 0 0 0-2 0v6h-6a1 1 0 0 0 0 2h6v6a1 1 0 0 0 2 0v-6h6a1 1 0 0 0 0-2"/><path d="M15 27H9v-6a1 1 0 0 0-2 0v6H1a1 1 0 0 0 0 2h6v6a1 1 0 0 0 2 0v-6h6a1 1 0 0 0 0-2"/><path class="svg__odd" d="M41 9h6v6a1 1 0 0 0 2 0V9h6a1 1 0 0 0 0-2h-6V1a1 1 0 0 0-2 0v6h-6a1 1 0 0 0 0 2"/><path d="M35 7h-6V1a1 1 0 0 0-2 0v6h-6a1 1 0 0 0 0 2h6v6a1 1 0 0 0 2 0V9h6a1 1 0 0 0 0-2"/><path class="svg__odd" d="M16 8a1 1 0 0 1-1 1H9v6a1 1 0 0 1-2 0V9H1a1 1 0 0 1 0-2h6V1a1 1 0 0 1 2 0v6h6a1 1 0 0 1 1 1"/></g></svg>