<svg xmlns="http://www.w3.org/2000/svg" viewBox="0 0 56 56"><path d="M56 55V41a1 1 0 0 0-2 0v14a1 1 0 0 0 2 0m0-20V21a1 1 0 0 0-2 0v14a1 1 0 0 0 2 0m0-20V1a1 1 0 0 0-2 0v14a1 1 0 0 0 2 0M50 5V1a1 1 0 0 0-2 0v4a1 1 0 0 0 2 0M38 5V1a1 1 0 0 0-2 0v4a1 1 0 0 0 2 0M26 5V1a1 1 0 0 0-2 0v4a1 1 0 0 0 2 0M14 5V1a1 1 0 0 0-2 0v4a1 1 0 0 0 2 0M2 5V1a1 1 0 0 0-2 0v4a1 1 0 0 0 2 0m48 50v-4a1 1 0 0 0-2 0v4a1 1 0 0 0 2 0m0-10V31a1 1 0 0 0-2 0v14a1 1 0 0 0 2 0m0-20V11a1 1 0 0 0-2 0v14a1 1 0 0 0 2 0m-6 30V41a1 1 0 0 0-2 0v14a1 1 0 0 0 2 0m0-20V21a1 1 0 0 0-2 0v14a1 1 0 0 0 2 0m0-20V1a1 1 0 0 0-2 0v14a1 1 0 0 0 2 0m-6 40v-4a1 1 0 0 0-2 0v4a1 1 0 0 0 2 0m0-10V31a1 1 0 0 0-2 0v14a1 1 0 0 0 2 0m0-20V11a1 1 0 0 0-2 0v14a1 1 0 0 0 2 0m-6 30V41a1 1 0 0 0-2 0v14a1 1 0 0 0 2 0m0-20V21a1 1 0 0 0-2 0v14a1 1 0 0 0 2 0m0-20V1a1 1 0 0 0-2 0v14a1 1 0 0 0 2 0m-6 40v-4a1 1 0 0 0-2 0v4a1 1 0 0 0 2 0m0-10V31a1 1 0 0 0-2 0v14a1 1 0 0 0 2 0m0-20V11a1 1 0 0 0-2 0v14a1 1 0 0 0 2 0m-6 30V41a1 1 0 0 0-2 0v14a1 1 0 0 0 2 0m0-20V21a1 1 0 0 0-2 0v14a1 1 0 0 0 2 0m0-20V1a1 1 0 0 0-2 0v14a1 1 0 0 0 2 0m-6 40v-4a1 1 0 0 0-2 0v4a1 1 0 0 0 2 0m0-10V31a1 1 0 0 0-2 0v14a1 1 0 0 0 2 0m0-20V11a1 1 0 0 0-2 0v14a1 1 0 0 0 2 0M8 55V41a1 1 0 0 0-2 0v14a1 1 0 0 0 2 0m0-20V21a1 1 0 0 0-2 0v14a1 1 0 0 0 2 0m0-20V1a1 1 0 0 0-2 0v14a1 1 0 0 0 2 0M2 55v-4a1 1 0 0 0-2 0v4a1 1 0 0 0 2 0m0-10V31a1 1 0 0 0-2 0v14a1 1 0 0 0 2 0M1 26a1 1 0 0 1-1-1V11a1 1 0 0 1 2 0v14a1 1 0 0 1-1 1" fill="#413C52" fill-rule="evenodd"/></svg>