<svg xmlns="http://www.w3.org/2000/svg" viewBox="0 0 54 54"><path d="M45.5 50a2 2 0 1 0 .001 4.001A2 2 0 0 0 45.5 50M33 50a2 2 0 1 0 .001 4.001A2 2 0 0 0 33 50m-12.5 0a2 2 0 1 0 .001 4.001A2 2 0 0 0 20.5 50M8 50a2 2 0 1 0 .001 4.001A2 2 0 0 0 8 50m44-10a2 2 0 1 0 .001 4.001A2 2 0 0 0 52 40m-12.5 0a2 2 0 1 0 .001 4.001A2 2 0 0 0 39.5 40M27 40a2 2 0 1 0 .001 4.001A2 2 0 0 0 27 40m-12.5 0a2 2 0 1 0 .001 4.001A2 2 0 0 0 14.5 40M2 40a2 2 0 1 0 .001 4.001A2 2 0 0 0 2 40m43.5-10a2 2 0 1 0 .001 4.001A2 2 0 0 0 45.5 30M33 30a2 2 0 1 0 .001 4.001A2 2 0 0 0 33 30m-12.5 0a2 2 0 1 0 .001 4.001A2 2 0 0 0 20.5 30M8 30a2 2 0 1 0 .001 4.001A2 2 0 0 0 8 30m44-10a2 2 0 1 0 .001 4.001A2 2 0 0 0 52 20m-12.5 0a2 2 0 1 0 .001 4.001A2 2 0 0 0 39.5 20M27 20a2 2 0 1 0 .001 4.001A2 2 0 0 0 27 20m-12.5 0a2 2 0 1 0 .001 4.001A2 2 0 0 0 14.5 20M2 20a2 2 0 1 0 .001 4.001A2 2 0 0 0 2 20m43.5-10a2 2 0 1 0 .001 4.001A2 2 0 0 0 45.5 10M33 10a2 2 0 1 0 .001 4.001A2 2 0 0 0 33 10m-12.5 0a2 2 0 1 0 .001 4.001A2 2 0 0 0 20.5 10M8 10a2 2 0 1 0 .001 4.001A2 2 0 0 0 8 10M52 0a2 2 0 1 0 .001 4.001A2 2 0 0 0 52 0M39.5 0a2 2 0 1 0 .001 4.001A2 2 0 0 0 39.5 0M27 0a2 2 0 1 0 .001 4.001A2 2 0 0 0 27 0M14.5 0a2 2 0 1 0 .001 4.001A2 2 0 0 0 14.5 0M4 2a2 2 0 1 1-4.001-.001A2 2 0 0 1 4 2" fill="#413C52" fill-rule="evenodd"/></svg>