<svg xmlns="http://www.w3.org/2000/svg" viewBox="0 0 56 54"><path d="M1.743 11.669l8.261-9.174 8.261 9.174c.38.423 1.108.421 1.486 0l8.255-9.174 8.258 9.174c.38.423 1.108.421 1.486 0l8.255-9.174 8.251 9.174a1 1 0 0 0 1.487-1.338l-8.995-10a.996.996 0 0 0-1.486 0l-8.255 9.174L28.75.331c-.379-.422-1.107-.42-1.486 0l-8.255 9.174-8.26-9.174c-.38-.422-1.109-.422-1.487 0l-9.004 10a.999.999 0 1 0 1.486 1.338m0 14l8.261-9.174 8.261 9.174c.38.422 1.108.421 1.486 0l8.255-9.174 8.258 9.174c.38.422 1.108.421 1.486 0l8.255-9.174 8.251 9.174a1 1 0 1 0 1.487-1.338l-8.995-10a.996.996 0 0 0-1.486 0l-8.255 9.174-8.258-9.174c-.379-.422-1.107-.42-1.486 0l-8.255 9.174-8.26-9.174c-.38-.422-1.109-.422-1.487 0l-9.004 10a.999.999 0 1 0 1.486 1.338m0 14l8.261-9.174 8.261 9.174c.38.423 1.108.421 1.486 0l8.255-9.174 8.258 9.174c.38.423 1.108.421 1.486 0l8.255-9.174 8.251 9.174a1 1 0 0 0 1.487-1.338l-8.995-10a.996.996 0 0 0-1.486 0l-8.255 9.174-8.258-9.174c-.379-.421-1.107-.42-1.486 0l-8.255 9.174-8.26-9.174c-.38-.422-1.109-.422-1.487 0l-9.004 10a.999.999 0 1 0 1.486 1.338M1 54a.999.999 0 0 1-.742-1.669l9.004-10c.378-.422 1.107-.422 1.486 0l8.261 9.174 8.255-9.174c.38-.42 1.107-.422 1.486 0l8.258 9.174 8.255-9.174a.996.996 0 0 1 1.486 0l8.995 10a1 1 0 1 1-1.487 1.338l-8.25-9.174-8.256 9.174c-.378.421-1.107.423-1.486 0l-8.258-9.174-8.255 9.174c-.378.421-1.106.423-1.486 0l-8.26-9.174-8.262 9.174A.998.998 0 0 1 1 54" fill="#413C52" fill-rule="evenodd"/></svg>